# xmcd
#
# Track frame offsets: 
#        150
#        15810
#        28655
#        44967
#        58031
#        66275
#        79143
#        92544
#        102836
#        115064
#        126648
#        137558
#        148143
#        163518
#        175306
#        188522
#        200292
#        213283
#
# Disc length: 3011 seconds
#
# Revision: 1
# Processed by: cddbd v1.5.2PL0 Copyright (c) Steve Scherf et al.
# Submitted via: ExactAudioCopy v1.3
#
DISCID=fc0bc112
DTITLE=Various Artist - Country's Greatest
DYEAR=2001
DGENRE=Country
TTITLE0=Skeeter Davis - Desprado
TTITLE1=Lynn Anderson - Rose Garden
TTITLE2=Willie Nelson - Pretty Paper
TTITLE3=Kenny Rogers - Ruby (Don't Take Your Love To Town)
TTITLE4=Johnny Cash - Guess Things Happen Thet Way Down
TTITLE5=Frankie Laine - Moonlight Gambler
TTITLE6=Patti Page - Tennessee Waltz
TTITLE7=Patsy Cline - Pick Me Up On Your Way Down
TTITLE8=Billie Jo Spears - What I've Got In Mind
TTITLE9=Buck Owens - Foolin'around
TTITLE10=Hank Locklin - Send Me The Pillow
TTITLE11=Stonewall Jackson - Waterloo
TTITLE12=Bobby Bare - Leaving On A Jet Plane
TTITLE13=Gene Autry - Vaya Con Dios
TTITLE14=George Morgan - Red Rose From The Bleu Side Of Town
TTITLE15=Freddy Fender - I'm Leaving It Up To You
TTITLE16=Charlie Rich - I Take It On Home
TTITLE17=Faron Young - It's Four In The Motning
EXTD=
EXTT0=
EXTT1=
EXTT2=
EXTT3=
EXTT4=
EXTT5=
EXTT6=
EXTT7=
EXTT8=
EXTT9=
EXTT10=
EXTT11=
EXTT12=
EXTT13=
EXTT14=
EXTT15=
EXTT16=
EXTT17=
PLAYORDER=
